<svg width="64" height="64" viewBox="0 0 64 64" fill="none" xmlns="http://www.w3.org/2000/svg">
<g clip-path="url(#clip0_2019_29)">
<path d="M64 56.8889C64 58.7749 63.2508 60.5836 61.9172 61.9172C60.5836 63.2508 58.7749 64 56.8889 64H7.11111C5.22513 64 3.41639 63.2508 2.0828 61.9172C0.749204 60.5836 0 58.7749 0 56.8889V7.11111C0 5.22513 0.749204 3.41639 2.0828 2.0828C3.41639 0.749204 5.22513 0 7.11111 0L56.8889 0C58.7749 0 60.5836 0.749204 61.9172 2.0828C63.2508 3.41639 64 5.22513 64 7.11111V56.8889Z" fill="#FCD34D"/>
<path d="M26.2169 16.2222C27.1538 13.6871 29.3031 11.648 32.1138 11.648C35.0347 11.648 37.0774 13.5769 38.0125 16.2222L48.816 46.208C49.1467 47.0898 49.2569 47.8631 49.2569 48.2471C49.2569 50.3965 47.4934 51.8845 45.4542 51.8845C43.1378 51.8845 41.9805 50.672 41.4294 49.0205L39.7742 43.8382H24.4498L22.7965 48.9653C22.2454 50.6738 21.088 51.8845 18.8285 51.8845C16.624 51.8845 14.7502 50.2311 14.7502 48.0267C14.7502 47.1449 15.0258 46.4836 15.136 46.208L26.2169 16.2222ZM26.8214 36.2329H37.2942L32.1689 20.2471H32.0587L26.8214 36.2329Z" fill="white"/>
</g>
<defs>
<clipPath id="clip0_2019_29">
<rect width="64" height="64" fill="white"/>
</clipPath>
</defs>
</svg>
