<svg width="500" height="497" viewBox="0 0 500 497" fill="none" xmlns="http://www.w3.org/2000/svg">
<path d="M369.97 4.01499C366.383 -2.1148 357.502 -1.00203 355.557 5.82903C343.753 47.2856 343.515 69.6929 270.969 85.4877L383.417 150.966C404.992 91.4035 398.604 52.9499 369.97 4.01499Z" fill="#56392B"/>
<path d="M130.184 4.01499C133.772 -2.1148 142.651 -1.00203 144.596 5.82903C156.401 47.2856 156.64 69.6929 229.186 85.4877L116.738 150.966C95.1618 91.4035 101.55 52.9499 130.184 4.01499Z" fill="#56392B"/>
<path d="M95.4702 196.021C135.13 185.323 161.985 157.698 155.451 134.319C148.918 110.94 111.471 100.66 71.8107 111.359C32.1507 122.057 5.29636 149.682 11.8298 173.061C18.3632 196.44 55.8103 206.719 95.4702 196.021Z" fill="#525151"/>
<path d="M403.724 196.021C364.064 185.323 337.209 157.698 343.743 134.319C350.276 110.94 387.723 100.66 427.383 111.359C467.043 122.057 493.897 149.682 487.364 173.061C480.831 196.44 443.383 206.719 403.724 196.021Z" fill="#525151"/>
<path d="M434.043 217.52C434.043 117.638 353.073 36.6686 253.192 36.6686C153.31 36.6686 72.3405 117.638 72.3405 217.52V302.626C72.3405 402.507 153.31 483.477 253.192 483.477C353.073 483.477 434.043 402.507 434.043 302.626V217.52Z" fill="white"/>
<path fill-rule="evenodd" clip-rule="evenodd" d="M164.801 59.7035C150.922 88.7069 139.872 123.897 163.83 130.286C184.965 135.922 202.368 117.297 211.713 104.073C214.15 100.623 220.71 101.835 221.6 105.963C225.923 126.028 236.703 160.349 259.575 157.945C277.293 156.083 286.962 134.324 291.74 118.133C293.013 113.823 300.969 113.052 303.136 116.99C310.643 130.624 323.558 146.582 340.426 138.796C365.958 127.012 352.4 87.5507 337.034 57.2362C311.972 44.0996 283.45 36.6686 253.192 36.6686C221.087 36.6686 190.937 45.0337 164.801 59.7035Z" fill="#525151"/>
<path d="M127.66 274.115C137.06 274.115 144.681 269.543 144.681 263.903C144.681 258.262 137.06 253.69 127.66 253.69C118.259 253.69 110.638 258.262 110.638 263.903C110.638 269.543 118.259 274.115 127.66 274.115Z" fill="#ED653B" fill-opacity="0.6"/>
<path d="M378.723 274.115C388.124 274.115 395.745 269.543 395.745 263.903C395.745 258.262 388.124 253.69 378.723 253.69C369.323 253.69 361.702 258.262 361.702 263.903C361.702 269.543 369.323 274.115 378.723 274.115Z" fill="#ED653B" fill-opacity="0.6"/>
<path d="M157.447 257.945C138.646 257.945 123.404 238.893 123.404 215.392C123.404 191.891 138.646 172.839 157.447 172.839C176.248 172.839 191.489 191.891 191.489 215.392C191.489 238.893 176.248 257.945 157.447 257.945Z" fill="#525151"/>
<path d="M165.957 215.392C158.907 215.392 153.192 208.724 153.192 200.498C153.192 192.273 158.907 185.605 165.957 185.605C173.008 185.605 178.723 192.273 178.723 200.498C178.723 208.724 173.008 215.392 165.957 215.392Z" fill="white"/>
<path d="M146.809 228.158C143.283 228.158 140.426 225.3 140.426 221.775C140.426 218.25 143.283 215.392 146.809 215.392C150.334 215.392 153.192 218.25 153.192 221.775C153.192 225.3 150.334 228.158 146.809 228.158Z" fill="white"/>
<path d="M348.936 257.945C367.737 257.945 382.979 238.893 382.979 215.392C382.979 191.891 367.737 172.839 348.936 172.839C330.135 172.839 314.894 191.891 314.894 215.392C314.894 238.893 330.135 257.945 348.936 257.945Z" fill="#525151"/>
<path d="M340.426 215.392C347.476 215.392 353.191 208.724 353.191 200.498C353.191 192.273 347.476 185.605 340.426 185.605C333.375 185.605 327.66 192.273 327.66 200.498C327.66 208.724 333.375 215.392 340.426 215.392Z" fill="white"/>
<path d="M359.575 228.158C363.1 228.158 365.958 225.3 365.958 221.775C365.958 218.25 363.1 215.392 359.575 215.392C356.049 215.392 353.192 218.25 353.192 221.775C353.192 225.3 356.049 228.158 359.575 228.158Z" fill="white"/>
<path d="M251.064 496.243C359.171 496.243 446.809 443.851 446.809 379.222C446.809 314.593 359.171 262.201 251.064 262.201C142.957 262.201 55.3192 314.593 55.3192 379.222C55.3192 443.851 142.957 496.243 251.064 496.243Z" fill="#FFCEB9"/>
<path d="M165.958 355.818C173.008 355.818 178.723 347.244 178.723 336.669C178.723 326.093 173.008 317.52 165.958 317.52C158.907 317.52 153.192 326.093 153.192 336.669C153.192 347.244 158.907 355.818 165.958 355.818Z" fill="#525151"/>
<path d="M348.936 355.818C355.987 355.818 361.702 347.244 361.702 336.669C361.702 326.093 355.987 317.52 348.936 317.52C341.886 317.52 336.17 326.093 336.17 336.669C336.17 347.244 341.886 355.818 348.936 355.818Z" fill="#525151"/>
<path d="M153.192 394.115C191.489 455.818 327.66 455.818 363.83 394.115" stroke="#525151" stroke-width="10.6383" stroke-linecap="round" stroke-linejoin="round"/>
</svg>
