<svg width="500" height="497" viewBox="0 0 500 497" fill="none" xmlns="http://www.w3.org/2000/svg">
<path d="M369.97 4.01499C366.383 -2.1148 357.502 -1.00203 355.557 5.82903C343.753 47.2856 343.515 69.6929 270.969 85.4877L383.417 150.966C404.992 91.4035 398.604 52.9499 369.97 4.01499Z" fill="#56392B"/>
<path d="M130.184 4.01499C133.772 -2.1148 142.651 -1.00203 144.596 5.82903C156.401 47.2856 156.64 69.6929 229.186 85.4877L116.738 150.966C95.1618 91.4035 101.55 52.9499 130.184 4.01499Z" fill="#56392B"/>
<path d="M95.4702 196.021C135.13 185.323 161.985 157.698 155.451 134.319C148.918 110.94 111.471 100.66 71.8107 111.359C32.1507 122.057 5.29637 149.682 11.8298 173.061C18.3632 196.44 55.8103 206.719 95.4702 196.021Z" fill="#525151"/>
<path d="M403.724 196.021C364.064 185.323 337.209 157.698 343.743 134.319C350.276 110.94 387.723 100.66 427.383 111.359C467.043 122.057 493.897 149.682 487.364 173.061C480.831 196.44 443.383 206.719 403.724 196.021Z" fill="#525151"/>
<path d="M434.043 217.52C434.043 117.638 353.073 36.6686 253.192 36.6686C153.31 36.6686 72.3405 117.638 72.3405 217.52V302.626C72.3405 402.507 153.31 483.477 253.192 483.477C353.073 483.477 434.043 402.507 434.043 302.626V217.52Z" fill="white"/>
<path fill-rule="evenodd" clip-rule="evenodd" d="M164.801 59.7035C150.922 88.7069 139.872 123.897 163.83 130.286C184.965 135.922 202.368 117.297 211.713 104.073C214.15 100.623 220.71 101.835 221.6 105.963C225.923 126.028 236.703 160.349 259.575 157.945C277.293 156.083 286.962 134.324 291.74 118.133C293.013 113.823 300.969 113.052 303.136 116.99C310.643 130.624 323.558 146.582 340.426 138.796C365.958 127.012 352.4 87.5507 337.034 57.2362C311.972 44.0996 283.45 36.6686 253.192 36.6686C221.087 36.6686 190.937 45.0337 164.801 59.7035Z" fill="#525151"/>
<path d="M127.66 274.115C137.06 274.115 144.681 269.543 144.681 263.903C144.681 258.262 137.06 253.69 127.66 253.69C118.259 253.69 110.638 258.262 110.638 263.903C110.638 269.543 118.259 274.115 127.66 274.115Z" fill="#ED653B" fill-opacity="0.6"/>
<path d="M378.723 274.115C388.124 274.115 395.745 269.543 395.745 263.903C395.745 258.262 388.124 253.69 378.723 253.69C369.323 253.69 361.702 258.262 361.702 263.903C361.702 269.543 369.323 274.115 378.723 274.115Z" fill="#ED653B" fill-opacity="0.6"/>
<path d="M157.447 257.945C138.646 257.945 123.404 238.893 123.404 215.392C123.404 191.891 138.646 172.839 157.447 172.839C176.248 172.839 191.489 191.891 191.489 215.392C191.489 238.893 176.248 257.945 157.447 257.945Z" fill="#525151"/>
<path d="M165.957 215.392C158.907 215.392 153.192 208.724 153.192 200.498C153.192 192.273 158.907 185.605 165.957 185.605C173.008 185.605 178.723 192.273 178.723 200.498C178.723 208.724 173.008 215.392 165.957 215.392Z" fill="white"/>
<path d="M146.809 228.158C143.283 228.158 140.426 225.3 140.426 221.775C140.426 218.25 143.283 215.392 146.809 215.392C150.334 215.392 153.192 218.25 153.192 221.775C153.192 225.3 150.334 228.158 146.809 228.158Z" fill="white"/>
<path d="M348.936 257.945C367.737 257.945 382.979 238.893 382.979 215.392C382.979 191.891 367.737 172.839 348.936 172.839C330.135 172.839 314.894 191.891 314.894 215.392C314.894 238.893 330.135 257.945 348.936 257.945Z" fill="#525151"/>
<path d="M340.426 215.392C347.476 215.392 353.191 208.724 353.191 200.498C353.191 192.273 347.476 185.605 340.426 185.605C333.375 185.605 327.66 192.273 327.66 200.498C327.66 208.724 333.375 215.392 340.426 215.392Z" fill="white"/>
<path d="M359.575 228.158C363.1 228.158 365.958 225.3 365.958 221.775C365.958 218.25 363.1 215.392 359.575 215.392C356.049 215.392 353.192 218.25 353.192 221.775C353.192 225.3 356.049 228.158 359.575 228.158Z" fill="white"/>
<path d="M251.064 496.243C359.171 496.243 446.809 443.851 446.809 379.222C446.809 314.593 359.171 262.201 251.064 262.201C142.957 262.201 55.3192 314.593 55.3192 379.222C55.3192 443.851 142.957 496.243 251.064 496.243Z" fill="#FFCEB9"/>
<path d="M165.958 355.818C173.008 355.818 178.723 347.244 178.723 336.669C178.723 326.093 173.008 317.52 165.958 317.52C158.907 317.52 153.192 326.093 153.192 336.669C153.192 347.244 158.907 355.818 165.958 355.818Z" fill="#525151"/>
<path d="M348.936 355.818C355.987 355.818 361.702 347.244 361.702 336.669C361.702 326.093 355.987 317.52 348.936 317.52C341.886 317.52 336.17 326.093 336.17 336.669C336.17 347.244 341.886 355.818 348.936 355.818Z" fill="#525151"/>
<path d="M394.468 433.383C384.187 417.524 357.928 409.911 350.387 408.009C349.247 407.72 348.145 408.434 347.94 409.592C346.604 417.256 342.838 444.332 353.119 460.192C363.4 476.052 389.66 483.664 397.2 485.566C398.336 485.856 399.443 485.141 399.643 483.983C400.983 476.324 404.749 449.243 394.468 433.383Z" fill="#CBBD43"/>
<path d="M342.923 463.366C348.183 448.107 339.689 426.528 336.838 420.022C336.37 418.945 335.115 418.511 334.081 419.069C327.826 422.439 307.835 434.196 302.574 449.456C297.313 464.715 305.809 486.298 308.657 492.805C309.129 493.877 310.383 494.311 311.417 493.754C317.67 490.388 337.66 478.626 342.923 463.366Z" fill="#CBBD43"/>
<path d="M153.192 394.115C191.489 455.818 327.66 455.818 363.83 394.115" stroke="#525151" stroke-width="10.6383" stroke-linecap="round" stroke-linejoin="round"/>
<path d="M253.171 174.277C265.045 119.617 281.36 98.1363 326.043 53.6899" stroke="#CBBD43" stroke-width="5.30911" stroke-linecap="round"/>
<path d="M241.037 192.116C242.514 181.58 253.573 170.959 253.573 170.959C253.573 170.959 260.085 183.307 258.608 193.843C257.131 204.379 247.34 215.423 247.34 215.423C247.34 215.423 239.56 202.652 241.037 192.116Z" fill="#CBBD43"/>
<path d="M263.003 163.413C259.089 157.27 258.877 147.9 258.877 147.9C258.877 147.9 267.356 152.168 271.27 158.311C275.185 164.454 275.397 173.824 275.397 173.824C275.397 173.824 266.918 169.557 263.003 163.413Z" fill="#CBBD43"/>
<path d="M243.123 152.695C249.813 148.742 259.602 148.246 259.602 148.246C259.602 148.246 254.537 156.526 247.846 160.48C241.156 164.434 231.367 164.93 231.367 164.93C231.367 164.93 236.432 156.649 243.123 152.695Z" fill="#CBBD43"/>
<path d="M273.064 138.189C269.149 132.046 268.938 122.675 268.938 122.675C268.938 122.675 277.416 126.944 281.331 133.086C285.246 139.229 285.458 148.6 285.458 148.6C285.458 148.6 276.979 144.332 273.064 138.189Z" fill="#CBBD43"/>
<path d="M252.691 123.719C260.093 121.378 269.597 123.152 269.597 123.152C269.597 123.152 262.667 130.123 255.265 132.464C247.862 134.804 238.358 133.031 238.358 133.031C238.358 133.031 245.288 126.06 252.691 123.719Z" fill="#CBBD43"/>
<path d="M286.336 116.1C282.886 109.691 283.349 100.295 283.349 100.295C283.349 100.295 291.471 105.129 294.92 111.539C298.37 117.949 297.907 127.345 297.907 127.345C297.907 127.345 289.785 122.51 286.336 116.1Z" fill="#CBBD43"/>
<path d="M265.795 100.124C273.254 97.9865 282.686 100.027 282.686 100.027C282.686 100.027 275.559 106.812 268.1 108.95C260.641 111.087 251.209 109.046 251.209 109.046C251.209 109.046 258.336 102.261 265.795 100.124Z" fill="#CBBD43"/>
<path d="M303.527 92.7703C300.666 86.0766 301.949 76.7103 301.949 76.7103C301.949 76.7103 309.583 82.2051 312.443 88.8983C315.304 95.592 314.021 104.958 314.021 104.958C314.021 104.958 306.387 99.4634 303.527 92.7703Z" fill="#CBBD43"/>
<path d="M286.115 76.5192C293.574 74.3817 303.006 76.4222 303.006 76.4222C303.006 76.4222 295.879 83.2081 288.42 85.3452C280.961 87.4826 271.529 85.4422 271.529 85.4422C271.529 85.4422 278.656 78.6566 286.115 76.5192Z" fill="#CBBD43"/>
</svg>
