<svg width="285" height="329" viewBox="0 0 285 329" fill="none" xmlns="http://www.w3.org/2000/svg">
<path d="M227.985 252.17C227.985 315.14 176.962 328.5 113.993 328.5C51.0231 328.5 0 315.14 0 252.17C0 224.402 9.94017 176.935 26.4919 152.906C28.4526 150.033 30.5045 147.252 32.6475 144.516C41.1713 133.677 51.3595 124.258 62.8328 116.61C67.3251 113.619 72.0523 110.996 76.9679 108.768C88.5542 103.333 101.195 100.515 113.993 100.515C126.79 100.515 139.431 103.333 151.018 108.768C155.933 110.996 160.66 113.619 165.153 116.61C176.626 124.258 186.814 133.677 195.338 144.516C197.481 147.252 199.533 150.033 201.494 152.906C218.045 176.935 227.985 224.402 227.985 252.17Z" fill="#965500"/>
<path d="M75.2352 182.589C79.0126 182.589 82.0748 179.527 82.0748 175.75C82.0748 171.972 79.0126 168.91 75.2352 168.91C71.4578 168.91 68.3957 171.972 68.3957 175.75C68.3957 179.527 71.4578 182.589 75.2352 182.589Z" fill="#2D2D2D"/>
<path d="M152.75 182.589C156.528 182.589 159.59 179.527 159.59 175.75C159.59 171.972 156.528 168.91 152.75 168.91C148.973 168.91 145.911 171.972 145.911 175.75C145.911 179.527 148.973 182.589 152.75 182.589Z" fill="#2D2D2D"/>
<path d="M209.747 123.313C209.747 127.884 208.374 132.35 205.805 136.131C203.235 139.912 199.589 142.833 195.338 144.516C186.814 133.677 176.626 124.258 165.153 116.61C166.755 111.389 170.179 106.916 174.801 104.006C179.423 101.096 184.936 99.9415 190.337 100.753C195.738 101.565 200.668 104.289 204.23 108.429C207.793 112.57 209.75 117.851 209.747 123.313Z" fill="#703F00"/>
<path d="M62.8328 116.61C51.3595 124.258 41.1713 133.677 32.6475 144.516C29.0636 143.096 25.8981 140.791 23.4471 137.815C20.996 134.84 19.3395 131.292 18.6322 127.502C17.925 123.713 18.1902 119.806 19.4031 116.147C20.6159 112.488 22.7368 109.196 25.5674 106.579C28.3981 103.962 31.846 102.106 35.589 101.183C39.3319 100.261 43.2476 100.303 46.97 101.305C50.6925 102.307 54.1 104.236 56.8741 106.913C59.6482 109.59 61.6984 112.926 62.8328 116.61Z" fill="#703F00"/>
<path d="M134.648 301.142H93.3373C90.7635 301.157 88.2156 300.628 85.861 299.589C83.5065 298.549 81.3985 297.023 79.6758 295.111C77.9531 293.199 76.6546 290.944 75.8656 288.494C75.0767 286.044 74.8153 283.455 75.0984 280.897L78.4726 250.803C79.1804 244.413 81.6001 238.333 85.4765 233.205C89.3529 228.077 94.542 224.09 100.496 221.666C100.53 221.92 100.607 222.167 100.724 222.396C101.348 223.695 102.415 224.73 103.733 225.314L113.902 229.873L124.07 225.314C125.388 224.73 126.455 223.695 127.079 222.396C127.119 222.154 127.119 221.908 127.079 221.666C133.112 224.067 138.379 228.064 142.315 233.228C146.251 238.393 148.707 244.531 149.422 250.985L152.796 281.079C153.051 283.615 152.771 286.177 151.975 288.598C151.179 291.02 149.885 293.248 148.175 295.138C146.465 297.028 144.378 298.539 142.048 299.573C139.718 300.608 137.197 301.142 134.648 301.142Z" fill="#703F00"/>
<path d="M113.993 278.343C112.783 278.343 111.624 277.863 110.769 277.008C109.913 276.153 109.433 274.993 109.433 273.784V223.627C109.433 222.417 109.913 221.258 110.769 220.403C111.624 219.547 112.783 219.067 113.993 219.067C115.202 219.067 116.362 219.547 117.217 220.403C118.072 221.258 118.552 222.417 118.552 223.627V273.784C118.552 274.993 118.072 276.153 117.217 277.008C116.362 277.863 115.202 278.343 113.993 278.343Z" fill="#3E2C27"/>
<path d="M100.314 287.463C99.3394 287.455 98.3933 287.136 97.6138 286.551C96.8343 285.967 96.2625 285.148 95.9821 284.215C95.7016 283.282 95.7274 282.284 96.0556 281.367C96.3838 280.45 96.9972 279.662 97.8058 279.118L111.485 269.999C112.486 269.462 113.652 269.318 114.753 269.595C115.855 269.873 116.814 270.551 117.441 271.498C118.069 272.445 118.32 273.593 118.146 274.715C117.972 275.838 117.385 276.855 116.501 277.568L102.821 286.687C102.087 287.202 101.21 287.473 100.314 287.463Z" fill="#3E2C27"/>
<path d="M127.672 287.463C126.775 287.473 125.898 287.202 125.164 286.687L111.485 277.568C110.6 276.855 110.013 275.838 109.839 274.715C109.665 273.593 109.917 272.445 110.544 271.498C111.172 270.551 112.13 269.873 113.232 269.595C114.334 269.318 115.499 269.462 116.501 269.999L130.18 279.118C130.988 279.662 131.602 280.45 131.93 281.367C132.258 282.284 132.284 283.282 132.003 284.215C131.723 285.148 131.151 285.967 130.372 286.551C129.592 287.136 128.646 287.455 127.672 287.463Z" fill="#3E2C27"/>
<path d="M127.672 220.253C127.67 220.737 127.577 221.216 127.398 221.666C127.438 221.908 127.438 222.154 127.398 222.396C126.774 223.695 125.707 224.73 124.389 225.314L114.221 229.874L104.053 225.314C102.734 224.73 101.668 223.695 101.043 222.396C100.926 222.167 100.849 221.921 100.815 221.666C100.637 221.216 100.544 220.737 100.542 220.253C100.624 218.692 101.305 217.224 102.443 216.153C103.582 215.083 105.089 214.493 106.652 214.507H121.334C122.935 214.433 124.501 214.995 125.688 216.072C126.876 217.149 127.589 218.652 127.672 220.253Z" fill="#3E2C27"/>
<path d="M237.103 155.5H237.204M199 36.01C204.444 19.4196 219.447 7.5 237.103 7.5C259.354 7.5 277.393 26.4319 277.393 49.7857C277.393 67.2973 267.251 82.3225 252.796 88.7435C245.334 92.0587 241.604 93.7163 240.298 94.9965C238.744 96.5209 238.449 96.9882 237.718 99.0845C237.103 100.845 237.103 103.558 237.103 108.986V123.786" stroke="#22C55E" stroke-width="15" stroke-linecap="round" stroke-linejoin="round"/>
</svg>
