<svg width="129" height="129" viewBox="0 0 129 129" fill="none" xmlns="http://www.w3.org/2000/svg">
<path d="M98.965 60C115.534 60 128.965 46.5685 128.965 30C128.965 13.4315 115.534 0 98.965 0C82.3965 0 68.965 13.4315 68.965 30C68.965 46.5685 82.3965 60 98.965 60Z" fill="#CD333A"/>
<path d="M97.015 57.6C112.507 57.6 125.065 45.0416 125.065 29.55C125.065 14.0584 112.507 1.5 97.015 1.5C81.5234 1.5 68.965 14.0584 68.965 29.55C68.965 45.0416 81.5234 57.6 97.015 57.6Z" fill="#FF000C"/>
<path d="M78.965 12.85C81.215 9.30002 86.015 6.35002 91.015 5.45002C92.265 5.25002 93.515 5.15002 94.565 5.55002C95.365 5.85002 96.015 6.60002 95.565 7.45002C95.215 8.15002 94.265 8.45002 93.515 8.70002C88.8247 10.2478 84.7802 13.3075 82.015 17.4C81.015 18.9 79.515 23.05 77.665 22C75.715 20.85 76.115 17.25 78.965 12.85Z" fill="#FF656C"/>
<path d="M33.2289 71.2512L59.6384 123.214C59.9006 123.821 60.0237 124.493 59.9962 125.169C59.9687 125.844 59.7916 126.501 59.4812 127.078C59.1708 127.655 58.7372 128.134 58.2205 128.47C57.7039 128.805 57.121 128.988 56.5258 129H3.70686C1.79217 129.032 0.217032 127.285 0.188736 125.11C0.179304 124.446 0.320784 123.803 0.594311 123.214L27.0038 71.2512C27.2803 70.5785 27.72 70.0093 28.2714 69.6106C28.8227 69.2118 29.4627 69 30.1163 69C30.7699 69 31.41 69.2118 31.9613 69.6106C32.5126 70.0093 32.9524 70.5785 33.2289 71.2512Z" fill="#4530CA"/>
<path d="M30.0596 76.3939L54.1111 123.75C54.3557 124.3 54.4725 124.913 54.4502 125.529C54.428 126.145 54.2675 126.744 53.9841 127.27C53.7006 127.796 53.3036 128.231 52.8306 128.534C52.3576 128.836 51.8244 128.997 51.2816 129H3.17857C2.76198 129.003 2.34896 128.912 1.96331 128.733C1.57767 128.554 1.22702 128.29 0.93156 127.957C0.636103 127.623 0.401681 127.226 0.241801 126.789C0.0819211 126.352 -0.000257256 125.884 6.0496e-07 125.41C6.0496e-07 124.832 0.122615 124.264 0.348982 123.75L24.4005 76.3939C24.5643 75.9709 24.8 75.5889 25.0943 75.2698C25.3885 74.9507 25.7354 74.7008 26.1149 74.5345C26.4945 74.3682 26.8992 74.2888 27.3059 74.3008C27.7125 74.3129 28.1131 74.4161 28.4845 74.6047C29.1825 74.9475 29.7484 75.5903 30.0596 76.3939Z" fill="#4036F4"/>
<path d="M26.4001 81.5795C25.438 82.8009 8.6774 114.771 8.6774 114.771C8.6774 114.771 7.24375 117.225 8.9132 118.714C10.5921 120.214 12.1484 118.714 12.8652 117.493C13.582 116.271 28.7958 87.5686 29.39 86.2079C29.6494 85.4434 29.731 84.616 29.6269 83.8052C29.5228 82.9945 29.2366 82.228 28.7958 81.5795C27.9563 80.6259 27.0037 80.6259 26.4001 81.5795Z" fill="#808FFF"/>
<path d="M56 0H4C1.79 0 0 1.79 0 4V56C0 58.21 1.79 60 4 60H56C58.21 60 60 58.21 60 56V4C60 1.79 58.21 0 56 0Z" fill="#CD333A"/>
<path d="M52.85 0H3.75001C2.75767 0.00719825 1.80802 0.404598 1.10632 1.1063C0.404609 1.80801 0.00720941 2.75766 1.1165e-05 3.75V52.7C-0.00498883 54.77 1.67001 56.445 3.74001 56.45H52.8C54.87 56.455 56.545 54.78 56.55 52.71V3.75C56.595 1.725 54.985 0.045 52.96 0H52.85Z" fill="#FF000C"/>
<path d="M17.85 4.45C17.85 3.3 17.05 2.95 12.45 3.1C8.59999 3.25 6.69999 3.7 5.54999 5.1C4.39999 6.5 4.09999 9.35 4.04999 12.75C4.04999 15.15 4.04999 17.4 5.29999 17.4C6.99999 17.4 6.99999 13.45 8.39999 11.25C11.1 6.9 17.85 5.95 17.85 4.45Z" fill="#FF656C"/>
<path d="M125 69H73C70.79 69 69 70.79 69 73V125C69 127.21 70.79 129 73 129H125C127.21 129 129 127.21 129 125V73C129 70.79 127.21 69 125 69Z" fill="#4530CA"/>
<path d="M121.85 69H72.75C71.7577 69.0072 70.808 69.4046 70.1063 70.1063C69.4046 70.808 69.0072 71.7577 69 72.75V121.7C68.995 123.77 70.67 125.445 72.74 125.45H121.8C123.87 125.455 125.545 123.78 125.55 121.71V72.75C125.595 70.725 123.985 69.045 121.96 69H121.85Z" fill="#4036F4"/>
<path d="M86.85 73.45C86.85 72.3 86.05 71.95 81.45 72.1C77.6 72.25 75.7 72.7 74.55 74.1C73.4 75.5 73.1 78.35 73.05 81.75C73.05 84.15 73.05 86.4 74.3 86.4C76 86.4 76 82.45 77.4 80.25C80.1 75.9 86.85 74.95 86.85 73.45Z" fill="#808FFF"/>
</svg>
