<svg width="54" height="53" viewBox="0 0 54 53" fill="none" xmlns="http://www.w3.org/2000/svg">
<path d="M50.6667 46.2667H2.66669V24.9333L26.6667 2.26666L50.6667 24.9333V46.2667Z" fill="#FCD34D"/>
<path d="M46.6667 22.2667L40 15.6V6.26666H46.6667V22.2667ZM2.66669 46.2667H50.6667V52.9333H2.66669V46.2667Z" fill="#FE9A00"/>
<path d="M26.6667 0L0 24.8L2.66667 27.7333L26.6667 5.46667L50.6667 27.7333L53.3333 24.8L26.6667 0Z" fill="#B71C1C"/>
<path d="M18.6667 31.6H34.6667V52.9333H18.6667V31.6Z" fill="#D84315"/>
<path d="M22.6667 16.9333H30.6667V24.9333H22.6667V16.9333Z" fill="#B71C1C"/>
<path d="M31.3334 41.6C30.9334 41.6 30.6667 41.8667 30.6667 42.2667V44.9333C30.6667 45.3333 30.9334 45.6 31.3334 45.6C31.7334 45.6 32 45.3333 32 44.9333V42.2667C32 41.8667 31.7334 41.6 31.3334 41.6Z" fill="#FF8A65"/>
</svg>
