<svg width="39" height="39" viewBox="0 0 39 39" fill="none" xmlns="http://www.w3.org/2000/svg">
<path d="M19.1594 38.3189C29.7409 38.3189 38.3188 29.7409 38.3188 19.1595C38.3188 8.57802 29.7409 6.10352e-05 19.1594 6.10352e-05C8.57796 6.10352e-05 0 8.57802 0 19.1595C0 29.7409 8.57796 38.3189 19.1594 38.3189Z" fill="#FFC500"/>
<path d="M20.5175 35.6059C9.93408 35.6059 1.35808 27.0268 1.35808 16.4465C1.35546 13.9883 1.82607 11.5525 2.74422 9.27222C0.94315 12.2553 -0.00595701 15.6748 2.81329e-05 19.1594C2.81329e-05 29.7397 8.57915 38.3188 19.1594 38.3188C27.2047 38.3188 34.0917 33.3612 36.9296 26.3337C33.5766 31.8908 27.4794 35.6059 20.5175 35.6059Z" fill="#FF9F1E"/>
<path d="M19.1595 3.14952e-05C15.0544 -0.0074296 11.0566 1.31093 7.76123 3.75886C12.2846 2.01332 17.2569 1.80595 21.9099 3.16881C21.8699 3.21796 21.8353 3.27136 21.8069 3.32803C21.2387 4.38637 22.3969 6.10969 24.3887 7.1774C26.3805 8.24511 28.4598 8.25759 29.028 7.20237C29.0821 7.09926 29.121 6.98884 29.1435 6.87457C34.3009 10.8707 37.6321 17.1177 37.6633 24.1421C38.0998 22.5172 38.3202 20.8419 38.3189 19.1594C38.3189 8.57915 29.7398 3.14952e-05 19.1595 3.14952e-05Z" fill="#FFE059"/>
<path d="M30.5627 9.26664C30.664 8.74534 30.0217 8.18193 29.1281 8.00822C28.2344 7.83451 27.4278 8.11629 27.3265 8.63759C27.2251 9.15888 27.8675 9.7223 28.7611 9.89601C29.6548 10.0697 30.4614 9.78794 30.5627 9.26664Z" fill="#FFE059"/>
<path d="M26.3934 9.98782C26.5417 9.73099 26.3593 9.34806 25.986 9.13254C25.6127 8.91701 25.1898 8.9505 25.0416 9.20733C24.8933 9.46416 25.0757 9.84708 25.449 10.0626C25.8223 10.2781 26.2451 10.2446 26.3934 9.98782Z" fill="#FFE059"/>
<path d="M13.807 16.3085C13.8784 14.6738 13.0956 13.3119 12.0586 13.2666C11.0217 13.2214 10.1232 14.5099 10.0518 16.1446C9.98041 17.7793 10.7632 19.1412 11.8002 19.1865C12.8372 19.2317 13.7357 17.9433 13.807 16.3085Z" fill="#00305F"/>
<path d="M12.9624 16.7805C13.2486 16.7805 13.4806 16.5485 13.4806 16.2623C13.4806 15.976 13.2486 15.744 12.9624 15.744C12.6762 15.744 12.4442 15.976 12.4442 16.2623C12.4442 16.5485 12.6762 16.7805 12.9624 16.7805Z" fill="white"/>
<path d="M26.5317 19.1658C27.5687 19.1205 28.3515 17.7586 28.2801 16.1239C28.2087 14.4892 27.3102 13.2007 26.2733 13.246C25.2363 13.2912 24.4535 14.6531 24.5249 16.2879C24.5962 17.9226 25.4947 19.2111 26.5317 19.1658Z" fill="#00305F"/>
<path d="M25.3565 16.7805C25.6427 16.7805 25.8747 16.5485 25.8747 16.2623C25.8747 15.976 25.6427 15.744 25.3565 15.744C25.0703 15.744 24.8383 15.976 24.8383 16.2623C24.8383 16.5485 25.0703 16.7805 25.3565 16.7805Z" fill="white"/>
<path d="M14.4546 22.2751H23.8642C24.26 22.2751 24.6395 22.4324 24.9194 22.7122C25.1993 22.9921 25.3565 23.3717 25.3565 23.7674C25.3569 24.5815 25.1969 25.3877 24.8857 26.1399C24.5744 26.8921 24.118 27.5757 23.5425 28.1514C22.967 28.7272 22.2837 29.184 21.5317 29.4956C20.7796 29.8072 19.9735 29.9676 19.1594 29.9676C17.5158 29.9676 15.9396 29.3147 14.7774 28.1526C13.6152 26.9904 12.9623 25.4141 12.9623 23.7706C12.9623 23.3748 13.1196 22.9952 13.3994 22.7153C13.6793 22.4355 14.0589 22.2783 14.4546 22.2783V22.2751Z" fill="#00305F"/>
<path d="M16.1842 29.2059C17.096 29.7062 18.1194 29.9682 19.1594 29.9676C20.1995 29.9682 21.2228 29.7062 22.1346 29.2059C21.9692 27.2609 20.6985 26.1214 19.1594 26.1214C17.6203 26.1214 16.3497 27.2609 16.1842 29.2059Z" fill="#EA1700"/>
</svg>
