<svg width="50" height="51" viewBox="0 0 50 51" fill="none" xmlns="http://www.w3.org/2000/svg">
<path d="M22.3066 0.519531C22.3761 0.568752 22.4731 0.644635 22.5967 0.75C22.8609 0.975364 23.2156 1.30403 23.6357 1.70996C24.4748 2.52056 25.5521 3.6149 26.6475 4.74414C28.8239 6.98789 31.0917 9.39279 31.6211 9.89551C32.1553 10.4028 32.6276 10.7612 33.0938 10.957C33.5839 11.1628 34.0429 11.1776 34.5156 11.0498C35.369 10.8259 35.849 10.1587 36.0723 9.56641L36.1523 9.31934C36.2493 8.96468 36.2916 8.49844 36.3369 8.03711C36.3843 7.55527 36.4385 7.03075 36.5508 6.4873C36.7741 5.40637 37.2204 4.28542 38.2656 3.39551C40.3756 1.59944 43.6952 1.80945 45.6953 3.7207C47.6726 5.61058 48.0013 9.1899 45.6396 11.5518C44.4344 12.7569 43.5928 12.9962 42.8906 13.1162C42.1663 13.2399 41.3145 13.2405 40.46 14.0664C39.6901 14.8106 39.2971 15.5599 39.2891 16.3047C39.2811 17.0532 39.6629 17.6716 40.167 18.1484L40.168 18.1494C40.5987 18.5548 43.0206 21.0619 45.3125 23.5518C46.4563 24.7944 47.56 26.0241 48.3604 26.9775C48.7618 27.4557 49.0796 27.8559 49.2871 28.1494C49.3549 28.2453 49.4057 28.3245 49.4434 28.3867C49.3951 28.4535 49.3341 28.5371 49.2578 28.6348C49.0728 28.8717 48.8175 29.1831 48.5117 29.5459C47.9009 30.2707 47.0978 31.1896 46.2705 32.1064C45.443 33.0235 44.5949 33.9348 43.8945 34.6455C43.5439 35.0013 43.234 35.3036 42.9844 35.5293C42.7176 35.7706 42.5636 35.8837 42.5107 35.9102C42.1105 36.1103 41.5545 36.1973 41.0869 36.0771C40.6549 35.9661 40.2908 35.6817 40.1611 35.0693C40.0845 34.7075 40.0577 34.2419 40.0254 33.6797C39.9941 33.1357 39.9577 32.5193 39.8496 31.9229C39.6328 30.7267 39.0995 29.4759 37.6094 28.9678L37.1338 28.8203C36.0513 28.5175 35.1499 28.5155 34.2402 28.916C33.2511 29.3517 32.3099 30.2432 31.1084 31.5186C29.8712 32.8317 28.9334 34.2482 28.5752 35.5635C28.3948 36.226 28.3552 36.8865 28.5225 37.5C28.6921 38.1217 29.0643 38.6609 29.6445 39.082C30.7295 39.8694 31.9562 40.0981 32.9082 40.3301C33.9087 40.5739 34.567 40.8117 34.9424 41.4512C35.1409 41.7895 35.2034 42.096 35.1738 42.3984C35.1431 42.7111 35.0091 43.0597 34.748 43.4668C34.2153 44.2975 33.2436 45.2404 31.9229 46.4619C30.607 47.679 29.4577 48.768 28.5879 49.5273C28.1516 49.9082 27.8029 50.1903 27.5508 50.3604C27.5031 50.3925 27.4614 50.4169 27.4268 50.4375C27.3632 50.3748 27.2839 50.2968 27.1914 50.2031C26.9538 49.9625 26.6306 49.6297 26.249 49.2334C25.4863 48.4412 24.4933 47.3983 23.4873 46.3369C21.4706 44.2091 19.417 42.0209 19.0557 41.6104L19.0547 41.6094L18.8877 41.4316C18.475 41.0219 17.9076 40.6442 17.2441 40.5059C16.4558 40.3416 15.5884 40.5283 14.7842 41.2764C14.3644 41.6657 14.0504 42.2532 13.7539 42.8047C13.4419 43.3851 13.1197 43.9905 12.6709 44.5547C11.8044 45.6439 10.4306 46.626 7.66699 46.626C6.30454 46.6259 5.27583 46.2583 4.51953 45.6963C3.76059 45.1323 3.24655 44.3507 2.95215 43.4785C2.35438 41.7074 2.69012 39.6549 3.60742 38.498C4.55279 37.3059 6.09249 36.6325 7.53809 36.0098C8.23399 35.71 8.92854 35.413 9.4502 35.0693C9.96761 34.7284 10.4434 34.2588 10.4824 33.5723V33.5703C10.4945 33.3449 10.4189 33.1307 10.335 32.957C10.2469 32.775 10.1229 32.5848 9.98047 32.3926C9.69543 32.008 9.2956 31.564 8.83887 31.0869C8.38 30.6076 7.84911 30.0802 7.29688 29.5303C6.74285 28.9786 6.16549 28.4014 5.60449 27.8154C4.28109 26.4311 3.00396 25.0053 2.0459 23.8838C1.56677 23.3229 1.16973 22.8411 0.887695 22.4805C0.746289 22.2996 0.636779 22.1531 0.561523 22.0449C0.553724 22.0337 0.546845 22.0227 0.540039 22.0127C0.557477 21.9816 0.579838 21.9437 0.608398 21.8994C0.731778 21.7081 0.928957 21.4504 1.1875 21.1406C1.70187 20.5243 2.42347 19.7458 3.19141 18.9561C4.73942 17.3642 6.41307 15.7914 6.91699 15.4248C7.73075 14.8333 8.68283 15.1785 9.16992 15.7051C9.24871 15.7903 9.34276 15.9565 9.44141 16.2314C9.53688 16.4976 9.62098 16.8179 9.70703 17.1738C9.87194 17.8559 10.0461 18.6977 10.3154 19.3174C10.5592 19.8782 11.3212 21.5623 12.8389 22.3252C13.6244 22.72 14.5861 22.8553 15.7188 22.5068C16.8355 22.1631 18.0964 21.3564 19.5254 19.915C20.9429 18.4839 21.7175 17.2107 22.0068 16.0732C22.3009 14.917 22.0832 13.9372 21.5957 13.1445C21.1179 12.3676 20.3958 11.7929 19.7012 11.3857C19.0038 10.9769 18.3024 10.717 17.8232 10.584C16.885 10.3235 16.2086 10.1806 15.6699 9.8877C15.1884 9.62581 14.8293 9.24479 14.6152 8.46582C14.5578 8.25648 14.5827 8.00783 14.7334 7.68555C14.887 7.35723 15.1555 6.98705 15.5312 6.56641C16.292 5.71475 17.3641 4.78794 18.5283 3.67285C19.6638 2.58541 20.5517 1.77059 21.2246 1.22949C21.5614 0.958703 21.8313 0.766431 22.043 0.644531C22.1482 0.58391 22.2309 0.545866 22.293 0.523438C22.2976 0.521761 22.3024 0.520975 22.3066 0.519531Z" fill="url(#paint0_radial_2020_87)" stroke="black"/>
<defs>
<radialGradient id="paint0_radial_2020_87" cx="0" cy="0" r="1" gradientUnits="userSpaceOnUse" gradientTransform="translate(24.3345 -14.0937) scale(52.0846 52.087)">
<stop offset="0.508" stop-color="#FDE2F1"/>
<stop offset="0.572" stop-color="#FDE2F1"/>
<stop offset="0.643" stop-color="#FBCBE6"/>
<stop offset="0.717" stop-color="#EC4899"/>
<stop offset="0.793" stop-color="#EC4899"/>
<stop offset="0.871" stop-color="#EC4899"/>
<stop offset="0.949" stop-color="#EC4899"/>
<stop offset="0.981" stop-color="#D72A80"/>
</radialGradient>
</defs>
</svg>
