<svg width="250" height="188" viewBox="0 0 250 188" fill="none" xmlns="http://www.w3.org/2000/svg">
<path d="M155.016 1.5C156.712 1.5 158.257 2.4804 158.979 4.0166L184.876 59.1826L185.217 59.9072L186.008 60.0273L243.805 68.8574V68.8584C245.428 69.1081 246.775 70.2429 247.296 71.7979H247.297C247.816 73.3481 247.424 75.0635 246.273 76.2432L246.272 76.2441L204.279 119.304L203.751 119.846L203.873 120.593L213.797 181.417V181.418C214.068 183.072 213.37 184.736 212.001 185.697L211.995 185.701C211.247 186.231 210.365 186.5 209.481 186.5C208.758 186.5 208.026 186.317 207.36 185.951H207.359L155.74 157.4L155.014 156.999L154.288 157.4L102.668 185.951C102.002 186.317 101.27 186.5 100.547 186.5C99.6643 186.5 98.7841 186.231 98.0311 185.699L98.0272 185.697L97.7782 185.509C96.5742 184.528 95.976 182.969 96.2303 181.418V181.417L106.155 120.593L106.276 119.846L105.748 119.304L63.7548 76.2441V76.2432C62.6084 75.0682 62.2163 73.3539 62.7362 71.8018L62.7372 71.8027C63.2285 70.3411 64.4429 69.2518 65.9266 68.918L66.2274 68.8613L124.026 60.0273L124.817 59.9072L125.157 59.1826L151.054 4.01855C151.779 2.47987 153.322 1.50013 155.016 1.5Z" fill="#22C55E" stroke="black" stroke-width="3"/>
<path d="M46.998 95.5C47.5544 95.5 48.062 95.8213 48.2998 96.3252V96.3262L61.2471 123.906L61.5869 124.631L62.3779 124.752L91.2734 129.166V129.167C91.8076 129.249 92.25 129.623 92.4209 130.133L92.4219 130.134C92.5706 130.578 92.4915 131.065 92.2148 131.44L92.084 131.594L71.0898 153.121L70.5615 153.663L70.6826 154.41L75.6445 184.819V184.82C75.7337 185.364 75.5038 185.91 75.0557 186.225L75.0508 186.229C74.8066 186.402 74.5175 186.489 74.2275 186.489C73.9922 186.489 73.7492 186.43 73.5273 186.308L47.7227 172.035L46.9961 171.634L46.2705 172.035L20.4648 186.308C20.243 186.43 20.001 186.489 19.7656 186.489C19.4767 186.489 19.1879 186.401 18.9404 186.227L18.9365 186.225L18.7793 186.096C18.4365 185.773 18.2706 185.296 18.3486 184.82V184.819L23.3096 154.41L23.4316 153.663L22.9033 153.121L1.90918 131.594C1.53252 131.208 1.40297 130.645 1.57324 130.136L1.57422 130.137C1.74716 129.622 2.1906 129.25 2.7207 129.169H2.72168L31.6172 124.752L32.4092 124.631L32.749 123.906L45.6963 96.3262L45.6953 96.3252C45.9352 95.8195 46.4433 95.5 46.998 95.5Z" fill="#22C55E" stroke="black" stroke-width="3"/>
</svg>
