<svg width="131" height="131" viewBox="0 0 131 131" fill="none" xmlns="http://www.w3.org/2000/svg">
<path d="M65.0797 130.159C101.022 130.159 130.159 101.022 130.159 65.0797C130.159 29.1372 101.022 6.10352e-05 65.0797 6.10352e-05C29.1372 6.10352e-05 3.05176e-05 29.1372 3.05176e-05 65.0797C3.05176e-05 101.022 29.1372 130.159 65.0797 130.159Z" fill="#FFC500"/>
<path d="M69.6927 120.944C33.7435 120.944 4.61304 91.803 4.61304 55.8644C4.60414 47.5145 6.20269 39.241 9.32143 31.4954C3.20364 41.628 -0.0202345 53.2435 9.55602e-05 65.0797C9.55602e-05 101.018 29.1412 130.159 65.0798 130.159C92.4075 130.159 115.801 113.319 125.44 89.4488C114.051 108.325 93.3407 120.944 69.6927 120.944Z" fill="#FF9F1E"/>
<path d="M65.0798 0.000106981C51.1358 -0.0252365 37.5564 4.45288 26.3628 12.7679C41.7276 6.83872 58.6172 6.13436 74.4223 10.7636C74.2862 10.9306 74.1689 11.112 74.0724 11.3045C72.1423 14.8994 76.0766 20.7531 82.8423 24.3798C89.6079 28.0065 96.6705 28.0489 98.6005 24.4646C98.7844 24.1144 98.9166 23.7393 98.9929 23.3512C116.511 36.9249 127.826 58.1444 127.932 82.0045C129.415 76.4853 130.164 70.7947 130.159 65.0798C130.159 29.1412 101.018 0.000106981 65.0798 0.000106981Z" fill="#FFE059"/>
<path d="M72.1377 18.1678C73.0396 16.5984 72.0318 14.3268 69.8867 13.094C67.7415 11.8611 65.2714 12.1339 64.3695 13.7033C63.4675 15.2727 64.4753 17.5443 66.6205 18.7771C68.7656 20.0099 71.2357 19.7371 72.1377 18.1678Z" fill="#FFE059"/>
<path d="M66.0766 108.229H64.0829C51.6969 108.229 41.6545 98.187 41.6545 85.801C57.1168 82.694 73.0427 82.694 88.5051 85.801C88.5051 98.187 78.4626 108.229 66.0766 108.229Z" fill="#00305F"/>
<path d="M41.0606 32.0468L44.2314 38.4625C44.5016 39.0099 44.9002 39.4839 45.3933 39.8439C45.8863 40.204 46.4591 40.4395 47.0628 40.5304L54.1466 41.559C57.2325 42.0044 58.4732 45.7902 56.2356 47.9747L51.1137 52.9694C50.6756 53.3942 50.3481 53.9197 50.1596 54.5001C49.9711 55.0804 49.9273 55.6981 50.032 56.2992L51.2409 63.3618C51.7605 66.4265 48.5368 68.7701 45.7796 67.3173L39.4382 63.9875C38.8982 63.705 38.2978 63.5575 37.6884 63.5575C37.079 63.5575 36.4787 63.705 35.9387 63.9875L29.6078 67.3173C26.84 68.7701 23.6163 66.4265 24.1465 63.3618L25.3554 56.2992C25.4602 55.6981 25.4164 55.0804 25.2278 54.5001C25.0393 53.9197 24.7118 53.3942 24.2738 52.9694L19.1412 47.9747C16.9142 45.7902 18.1444 42.0044 21.2303 41.559L28.3141 40.5304C28.9187 40.4421 29.4926 40.2076 29.986 39.8473C30.4794 39.4869 30.8774 39.0116 31.1454 38.4625L34.3162 32.0468C35.6948 29.2472 39.6821 29.2472 41.0606 32.0468Z" fill="#E85D00"/>
<path d="M89.0989 32.0468L85.9281 38.4625C85.6579 39.0099 85.2593 39.4839 84.7663 39.8439C84.2732 40.204 83.7005 40.4395 83.0968 40.5304L76.013 41.559C72.9271 42.0044 71.6863 45.7902 73.9239 47.9747L79.0458 52.9694C79.4839 53.3942 79.8114 53.9197 79.9999 54.5001C80.1885 55.0804 80.2323 55.6981 80.1275 56.2992L78.9186 63.3618C78.399 66.4265 81.6227 68.7701 84.3799 67.3173L90.7214 63.9875C91.2614 63.705 91.8617 63.5575 92.4711 63.5575C93.0805 63.5575 93.6809 63.705 94.2209 63.9875L100.552 67.3173C103.319 68.7701 106.543 66.4265 106.013 63.3618L104.804 56.2992C104.699 55.6981 104.743 55.0804 104.932 54.5001C105.12 53.9197 105.448 53.3942 105.886 52.9694L111.018 47.9747C113.245 45.7902 112.015 42.0044 108.929 41.559L101.845 40.5304C101.241 40.4421 100.667 40.2076 100.174 39.8473C99.6801 39.4869 99.2821 39.0116 99.0141 38.4625L95.8433 32.0468C94.4648 29.2472 90.4775 29.2472 89.0989 32.0468Z" fill="#E85D00"/>
<path d="M68.5474 95.8434C65.4613 95.8446 62.4664 96.8901 60.05 98.8097C57.6336 100.729 55.9379 103.41 55.2388 106.416C58.0329 107.616 61.0423 108.233 64.0829 108.229H66.0766C71.3697 108.236 76.4927 106.36 80.5305 102.938C79.3513 100.791 77.6171 98.9997 75.5092 97.7517C73.4014 96.5038 70.997 95.8448 68.5474 95.8434Z" fill="#FF4F4F"/>
</svg>
