<svg width="100" height="97" viewBox="0 0 100 97" fill="none" xmlns="http://www.w3.org/2000/svg">
<path d="M47.1612 96.6277C73.2076 96.6277 94.3224 75.5129 94.3224 49.4666C94.3224 23.4202 73.2076 2.30542 47.1612 2.30542C21.1148 2.30542 7.62939e-05 23.4202 7.62939e-05 49.4666C7.62939e-05 75.5129 21.1148 96.6277 47.1612 96.6277Z" fill="#FFC500"/>
<path d="M50.5041 89.9497C24.4529 89.9497 3.34294 68.8321 3.34294 42.7885C3.33527 36.7368 4.49643 30.7405 6.76264 25.129C2.3233 32.4696 -0.0158719 40.888 8.10556e-05 49.4666C8.10556e-05 75.5101 21.1177 96.6277 47.1612 96.6277C66.9648 96.6277 83.9173 84.4244 90.9027 67.126C82.6493 80.8049 67.641 89.9497 50.5041 89.9497Z" fill="#FF9F1E"/>
<path d="M47.1612 2.3054C37.0567 2.28813 27.2164 5.53317 19.1043 11.5578C30.2386 7.26112 42.4781 6.75069 53.9315 10.1054C53.8381 10.2301 53.7534 10.3611 53.6779 10.4973C52.2793 13.1024 55.1303 17.3444 60.0408 19.9726C64.9514 22.6008 70.054 22.6315 71.4527 20.0341C71.5893 19.7817 71.6852 19.5094 71.737 19.2272C84.4398 29.0636 92.6318 44.4407 92.7163 61.7314C93.7845 57.7307 94.3244 53.6074 94.3224 49.4666C94.3224 23.423 73.2125 2.3054 47.1612 2.3054Z" fill="#FFE059"/>
<path d="M27.729 48.575C27.9047 44.5511 25.9779 41.1988 23.4253 41.0873C20.8728 40.9759 18.6611 44.1475 18.4854 48.1714C18.3097 52.1953 20.2366 55.5476 22.7891 55.6591C25.3417 55.7705 27.5533 52.5989 27.729 48.575Z" fill="#00305F"/>
<path d="M25.6517 47.1765C26.3562 47.1765 26.9274 46.6054 26.9274 45.9009C26.9274 45.1963 26.3562 44.6252 25.6517 44.6252C24.9472 44.6252 24.376 45.1963 24.376 45.9009C24.376 46.6054 24.9472 47.1765 25.6517 47.1765Z" fill="white"/>
<path d="M52.4735 55.7206C55.026 55.6092 56.9529 52.2568 56.7772 48.233C56.6015 44.2091 54.3898 41.0374 51.8373 41.1489C49.2847 41.2603 47.3579 44.6127 47.5336 48.6365C47.7093 52.6604 49.9209 55.8321 52.4735 55.7206Z" fill="#00305F"/>
<path d="M53.9853 47.1765C54.6898 47.1765 55.2609 46.6054 55.2609 45.9009C55.2609 45.1963 54.6898 44.6252 53.9853 44.6252C53.2807 44.6252 52.7096 45.1963 52.7096 45.9009C52.7096 46.6054 53.2807 47.1765 53.9853 47.1765Z" fill="white"/>
<path d="M44.487 70.9761C44.0638 70.9763 43.6488 70.8593 43.2881 70.638C40.8521 69.1395 38.124 68.6707 35.1884 69.2394C32.8753 69.6851 31.2769 70.6303 31.2615 70.6457H31.2769C27.4576 71.5755 25.6517 68.6707 28.8639 66.7111C29.0791 66.5805 31.1002 65.374 34.1126 64.7592C38.2393 63.9139 42.243 64.5901 45.7011 66.7111C46.1309 66.9737 46.4629 67.3698 46.6463 67.8388C46.8297 68.3079 46.8545 68.8241 46.7168 69.3086C46.5792 69.7931 46.2866 70.2191 45.8839 70.5217C45.4813 70.8242 44.9906 70.9865 44.487 70.9838V70.9761Z" fill="#00305F"/>
<path d="M80.2363 37.1787C79.9934 37.1792 79.752 37.1403 79.5216 37.0634C79.1324 36.9371 78.7836 36.7098 78.5109 36.4047C78.2382 36.0996 78.0513 35.7276 77.9693 35.3267L76.855 29.7783C71.7754 29.5785 67.0032 28.1568 63.3222 25.7361C61.2935 24.399 59.6873 22.8236 58.55 21.0485C57.3128 19.1196 56.6826 17.0524 56.6826 14.9007C56.6826 12.749 57.3128 10.6818 58.55 8.7529C59.6873 6.97773 61.2935 5.40236 63.3222 4.0729C67.3106 1.44473 72.5593 0 78.1153 0C83.6714 0 88.92 1.44473 92.9084 4.0729C94.9372 5.40236 96.5356 6.97773 97.6806 8.7529C98.9179 10.6818 99.548 12.749 99.548 14.9007C99.548 17.1984 98.4491 19.8035 96.282 22.6392C95.3541 23.8532 94.3342 24.9939 93.2312 26.0512L81.7963 36.5716C81.3687 36.9591 80.8133 37.1752 80.2363 37.1787Z" fill="#4795FF"/>
<path d="M69.9541 16.6759C71.3377 16.6759 72.4594 15.5543 72.4594 14.1707C72.4594 12.7871 71.3377 11.6654 69.9541 11.6654C68.5705 11.6654 67.4489 12.7871 67.4489 14.1707C67.4489 15.5543 68.5705 16.6759 69.9541 16.6759Z" fill="#00305F"/>
<path d="M79.1835 16.6759C80.5671 16.6759 81.6887 15.5543 81.6887 14.1707C81.6887 12.7871 80.5671 11.6654 79.1835 11.6654C77.7999 11.6654 76.6783 12.7871 76.6783 14.1707C76.6783 15.5543 77.7999 16.6759 79.1835 16.6759Z" fill="#00305F"/>
<path d="M88.4052 16.6759C89.7888 16.6759 90.9104 15.5543 90.9104 14.1707C90.9104 12.7871 89.7888 11.6654 88.4052 11.6654C87.0216 11.6654 85.8999 12.7871 85.8999 14.1707C85.8999 15.5543 87.0216 16.6759 88.4052 16.6759Z" fill="#00305F"/>
</svg>
