<svg width="690" height="678" viewBox="0 0 690 678" fill="none" xmlns="http://www.w3.org/2000/svg">
<path d="M340.689 0.00305176C341.963 0.00154114 341.963 0.00154114 343.263 0C368.209 0.019816 392.784 2.6989 417.314 7.25305C418.035 7.38228 418.756 7.51151 419.499 7.64465C442.201 11.8446 465.421 20.5924 486.314 30.2531C487.256 30.6817 488.198 31.1103 489.168 31.5519C515.473 43.5775 539.67 58.2907 562.314 76.2531C563.213 76.9569 564.111 77.6607 565.037 78.3859C582.207 92.0915 598.844 107.886 612.314 125.253C613.168 126.318 614.023 127.382 614.881 128.444C625.77 142.01 635.705 156.134 644.314 171.253C644.986 172.413 644.986 172.413 645.672 173.597C665.599 208.123 678.426 245.667 685.502 284.816C685.657 285.664 685.812 286.513 685.972 287.388C688.876 304.378 689.691 321.357 689.627 338.566C689.625 339.561 689.624 340.557 689.622 341.583C689.558 365.735 688.136 389.723 682.314 413.253C682.072 414.235 681.829 415.217 681.58 416.229C663.197 489.499 624.557 556.847 563.854 603.064C561.653 604.764 559.52 606.544 557.377 608.316C546.475 617.044 534.378 624.263 522.314 631.253C521.603 631.672 520.891 632.09 520.158 632.522C442.032 678.264 343.032 689.015 255.877 666.382C247.94 664.207 240.117 661.734 232.314 659.128C231.601 658.89 230.888 658.653 230.153 658.408C192.067 645.649 156.177 626.078 125.314 600.253C124.799 599.826 124.283 599.4 123.752 598.96C117.971 594.173 112.233 589.4 107.034 583.971C105.286 582.225 103.463 580.633 101.58 579.034C97.4187 575.415 93.6226 571.546 89.8767 567.503C89.2212 566.798 88.5658 566.092 87.8906 565.366C68.1969 544.026 51.9351 519.842 38.3142 494.253C37.9732 493.622 37.6322 492.99 37.2809 492.34C27.6332 474.378 19.6459 454.933 14.3142 435.253C13.9613 433.971 13.9613 433.971 13.6013 432.663C11.7461 425.882 9.99191 419.08 8.31415 412.253C8.11934 411.461 7.92453 410.669 7.72382 409.853C6.40109 404.351 5.30287 398.824 4.31415 393.253C4.13078 392.236 3.94741 391.219 3.75849 390.171C0.955109 374.007 -0.0465864 358.252 0.00165329 341.878C0.00411057 341.017 0.00656784 340.156 0.00909958 339.269C0.16032 309.702 3.53456 280.832 11.3142 252.253C11.5539 251.368 11.7937 250.483 12.0407 249.572C21.8761 213.871 37.8438 179.45 59.3142 149.253C59.7494 148.641 60.1846 148.028 60.633 147.397C63.7988 142.969 67.0373 138.599 70.3142 134.253C70.7534 133.667 71.1927 133.08 71.6452 132.476C78.9233 122.805 86.8868 113.933 95.3142 105.253C96.0091 104.536 96.7041 103.819 97.4201 103.081C104.877 95.4235 112.299 87.8741 120.728 81.2804C123.56 79.0599 126.272 76.7234 129.002 74.3781C169.314 40.776 223.92 14.2364 276.002 6.78821C279.335 6.32321 279.335 6.32321 282.556 5.2843C287.475 3.93451 292.385 3.31902 297.439 2.69055C298.396 2.56487 299.352 2.43918 300.338 2.30969C313.794 0.591695 327.14 0.0143042 340.689 0.00305176Z" fill="#FCFCFC"/>
<path d="M340.689 0.00305176C341.963 0.00154114 341.963 0.00154114 343.263 0C368.209 0.019816 392.784 2.6989 417.314 7.25305C418.035 7.38228 418.756 7.51151 419.499 7.64465C442.201 11.8446 465.421 20.5924 486.314 30.2531C487.256 30.6817 488.198 31.1103 489.168 31.5519C515.473 43.5775 539.67 58.2907 562.314 76.2531C563.213 76.9569 564.111 77.6607 565.037 78.3859C582.207 92.0915 598.844 107.886 612.314 125.253C613.168 126.318 614.023 127.382 614.881 128.444C625.77 142.01 635.705 156.134 644.314 171.253C644.986 172.413 644.986 172.413 645.672 173.597C665.599 208.123 678.426 245.667 685.502 284.816C685.657 285.664 685.812 286.513 685.972 287.388C688.876 304.378 689.691 321.357 689.627 338.566C689.625 339.561 689.624 340.557 689.622 341.583C689.558 365.735 688.136 389.723 682.314 413.253C682.072 414.235 681.829 415.217 681.58 416.229C663.197 489.499 624.557 556.847 563.854 603.064C561.653 604.764 559.52 606.544 557.377 608.316C546.475 617.044 534.378 624.263 522.314 631.253C521.603 631.672 520.891 632.09 520.158 632.522C442.032 678.264 343.032 689.015 255.877 666.382C247.94 664.207 240.117 661.734 232.314 659.128C231.601 658.89 230.888 658.653 230.153 658.408C192.067 645.649 156.177 626.078 125.314 600.253C124.799 599.826 124.283 599.4 123.752 598.96C117.971 594.173 112.233 589.4 107.034 583.971C105.286 582.225 103.463 580.633 101.58 579.034C97.4187 575.415 93.6226 571.546 89.8767 567.503C89.2212 566.798 88.5658 566.092 87.8906 565.366C68.1969 544.026 51.9351 519.842 38.3142 494.253C37.9732 493.622 37.6322 492.99 37.2809 492.34C27.6332 474.378 19.6459 454.933 14.3142 435.253C13.9613 433.971 13.9613 433.971 13.6013 432.663C11.7461 425.882 9.99191 419.08 8.31415 412.253C8.11934 411.461 7.92453 410.669 7.72382 409.853C6.40109 404.351 5.30287 398.824 4.31415 393.253C4.13078 392.236 3.94741 391.219 3.75849 390.171C0.955109 374.007 -0.0465864 358.252 0.00165329 341.878C0.00411057 341.017 0.00656784 340.156 0.00909958 339.269C0.16032 309.702 3.53456 280.832 11.3142 252.253C11.5539 251.368 11.7937 250.483 12.0407 249.572C21.8761 213.871 37.8438 179.45 59.3142 149.253C59.7494 148.641 60.1846 148.028 60.633 147.397C63.7988 142.969 67.0373 138.599 70.3142 134.253C70.7534 133.667 71.1927 133.08 71.6452 132.476C78.9233 122.805 86.8868 113.933 95.3142 105.253C96.0091 104.536 96.7041 103.819 97.4201 103.081C104.877 95.4235 112.299 87.8741 120.728 81.2804C123.56 79.0599 126.272 76.7234 129.002 74.3781C169.314 40.776 223.92 14.2364 276.002 6.78821C279.335 6.32321 279.335 6.32321 282.556 5.2843C287.475 3.93451 292.385 3.31902 297.439 2.69055C298.396 2.56487 299.352 2.43918 300.338 2.30969C313.794 0.591695 327.14 0.0143042 340.689 0.00305176ZM280.252 31.5031C279.191 31.7114 278.131 31.9197 277.039 32.1344C227.807 42.1959 181.489 65.055 142.314 96.2531C141.728 96.7187 141.143 97.1844 140.539 97.6642C125.957 109.393 112.373 122.96 100.314 137.253C99.8344 137.821 99.3546 138.388 98.8603 138.973C56.3908 189.848 27.6361 256.944 27.0759 323.843C27.0612 325.304 27.0612 325.304 27.0463 326.796C26.8779 347.985 27.1493 368.402 31.3142 389.253C31.7039 391.345 32.0932 393.438 32.4821 395.53C42.0064 445.143 63.2763 491.387 95.0251 530.655C96.2557 532.181 97.4728 533.717 98.6892 535.253C102.918 540.54 107.34 545.413 112.193 550.132C114.2 552.139 116.043 554.212 117.877 556.378C120.734 559.701 123.789 562.561 127.134 565.386C130.493 568.263 133.696 571.309 136.92 574.335C139.324 576.261 141.409 577.278 144.314 578.253C145.076 577.552 145.838 576.851 146.623 576.128C149.336 573.632 152.058 571.145 154.78 568.659C156.044 567.501 157.299 566.333 158.552 565.163C177.89 547.403 201.425 532.166 226.976 525.438C232.7 523.904 236.905 522.551 240.564 517.566C242.09 514.973 242.09 514.973 243.314 512.253C243.729 511.364 244.144 510.474 244.572 509.558C249.362 498.337 250.577 484.303 247.256 472.487C237.904 452.72 213.454 442.309 195.455 431.843C194.482 431.275 193.509 430.707 192.507 430.121C190.646 429.035 188.781 427.955 186.912 426.881C180.998 423.431 175.613 419.587 170.314 415.253C169.324 416.119 168.334 416.986 167.314 417.878C165.985 419.008 164.651 420.133 163.314 421.253C162.394 422.025 162.394 422.025 161.455 422.812C156.166 427.019 150.575 429.756 144.314 432.253C143.557 432.575 142.801 432.898 142.021 433.23C132.974 436.562 120.052 437.364 111.064 433.503C109.791 432.792 108.538 432.046 107.314 431.253C106.283 430.655 105.252 430.057 104.189 429.441C94.3899 421.985 89.1273 413.092 85.0017 401.628C84.747 400.924 84.4923 400.219 84.2299 399.494C77.7732 380.641 80.5085 358.872 86.3142 340.253C86.5335 339.548 86.7528 338.842 86.9787 338.116C91.1066 325.305 96.9433 311.877 104.631 300.812C106.568 298.439 106.568 298.439 106.127 295.941C105.433 294.261 105.433 294.261 104.314 293.253C103.289 284.044 106.881 279.497 112.136 272.271C115.786 267.12 115.786 267.12 116.216 261.034C115.919 259.786 115.621 258.539 115.314 257.253C114.608 250.907 114.226 245.882 118.252 240.628C119.574 239.141 120.931 237.684 122.314 236.253C123.904 234.551 125.487 232.842 127.064 231.128C127.801 230.362 128.539 229.597 129.299 228.808C134.447 222.283 134.805 216.104 135.252 208.066C136.402 192.082 141.045 178.078 152.314 166.253C154.674 164.492 157.052 162.933 159.591 161.444C160.16 161.051 160.728 160.658 161.314 160.253C161.314 159.593 161.314 158.933 161.314 158.253C147.279 162.316 135.581 170.459 128.314 183.253C124.864 190.386 123.296 196.802 123.209 204.737C123.194 205.756 123.179 206.774 123.164 207.823C123.139 209.927 123.134 212.032 123.148 214.136C122.933 224.484 118.542 231.267 111.611 238.683C108.235 242.771 108.066 246.051 108.127 251.316C108.133 252.544 108.14 253.773 108.146 255.038C108.172 258.27 108.172 258.27 109.314 261.253C106.924 260.663 106.924 260.663 104.314 259.253C103.205 256.312 103.205 256.312 102.564 252.691C102.342 251.514 102.121 250.337 101.892 249.124C98.1308 223.937 100.033 199.604 115.621 178.483C129.145 161.503 148.732 152.587 169.314 147.253C170.528 146.933 171.743 146.614 172.994 146.284C190.708 142.307 209.881 141.419 225.873 150.745C239.515 159.392 249.475 172.589 253.42 188.386C257.22 206.455 254.466 225.3 245.299 241.245C236.388 254.751 223.59 264.086 207.877 268.128C197.659 270.191 187.411 269.893 177.314 267.253C176.984 266.923 176.654 266.593 176.314 266.253C173.381 265.913 171.892 265.798 169.528 267.658C168.99 268.303 168.451 268.948 167.896 269.612C167.281 270.316 166.665 271.02 166.031 271.745C164.777 273.232 163.527 274.721 162.281 276.214C158.123 280.954 154.614 283.435 148.581 285.363C144.506 286.963 142.108 290 139.314 293.253C138.222 294.317 138.222 294.317 137.107 295.401C132.452 300.31 130.78 303.801 130.689 310.628C130.844 313.174 131.05 315.717 131.314 318.253C131.39 319.23 131.466 320.207 131.545 321.214C134.35 344.775 148.704 370.807 165.314 387.253C166.304 387.913 167.294 388.573 168.314 389.253C172.201 384.344 175.564 379.278 178.814 373.941C187.05 360.53 196.339 347.563 207.314 336.253C208.314 335.161 208.314 335.161 209.334 334.046C223.512 319.026 244.718 305.022 265.838 303.948C273.766 303.741 281.682 303.915 289.314 306.253C290.129 306.498 290.944 306.743 291.783 306.995C303.645 311.133 312.611 319.942 318.238 331.082C321.579 338.207 323.663 344.336 323.314 352.253C321.58 352.191 321.58 352.191 319.314 351.253C317.742 348.936 316.395 346.702 315.064 344.253C307.919 331.802 298.68 321.535 284.634 316.913C274.095 314.818 261.695 314.469 252.314 320.253C251.539 320.727 250.765 321.202 249.966 321.691C241.397 327.642 234.86 337.679 232.763 347.952C230.118 367.388 235.236 385.283 246.69 401.16C249.704 405.043 252.959 408.662 256.314 412.253C257.238 413.297 257.238 413.297 258.181 414.362C267.517 424.458 280.85 430.653 294.545 431.663C302.488 431.968 311.866 432.105 318.181 426.636C320.791 423.727 322.64 420.78 324.314 417.253C325.964 417.253 327.614 417.253 329.314 417.253C329.624 423.706 329.849 428.597 326.314 434.253C325.984 435.243 325.654 436.233 325.314 437.253C323.689 438.191 323.689 438.191 321.314 439.253C319.598 440.272 317.893 441.306 316.193 442.351C304.521 447.956 286.726 444.974 275.027 440.943C254.485 433.285 237.193 420.298 227.314 400.253C225.393 395.656 223.787 391.012 222.314 386.253C221.992 385.213 221.67 384.173 221.338 383.101C218.053 370.929 217.035 355.007 222.314 343.253C225.156 339.444 228.383 336.874 232.314 334.253C232.314 333.263 232.314 332.273 232.314 331.253C226.846 332.741 223.548 336.523 219.689 340.441C218.982 341.155 218.275 341.87 217.546 342.606C208.004 352.445 200.588 363.375 193.736 375.194C191.924 378.29 189.997 381.289 188.017 384.28C187.175 385.565 187.175 385.565 186.316 386.875C185.206 388.561 184.083 390.239 182.947 391.908C182.446 392.676 181.944 393.443 181.427 394.234C180.972 394.913 180.516 395.593 180.046 396.293C179.071 398.273 179.071 398.273 180.038 400.374C189.738 414.656 214.491 422.412 229.449 429.772C235.712 432.859 241.734 436.018 247.314 440.253C247.997 440.761 248.681 441.269 249.384 441.792C259.159 449.634 265.776 461.828 267.314 474.253C268.051 489.044 267.066 501.728 261.338 515.503C260.14 518.233 260.14 518.233 260.314 521.253C261.396 521.279 262.477 521.305 263.591 521.331C304.994 522.705 342.907 535.355 379.54 553.905C382.301 555.321 382.301 555.321 385.314 556.253C385.298 555.407 385.283 554.561 385.267 553.69C385.215 550.491 385.178 547.293 385.149 544.095C385.134 542.722 385.114 541.349 385.088 539.976C384.88 528.816 385.668 518.279 391.002 508.253C391.439 507.387 391.876 506.521 392.326 505.628C395.793 501.487 399.93 499.549 405.213 498.893C408.654 498.761 412.075 498.752 415.517 498.784C417.427 498.774 417.427 498.774 419.375 498.763C424.115 498.737 428.854 498.746 433.593 498.758C466.771 498.827 497.524 495.327 522.189 471.066C540.235 452.555 552.062 428.02 552.564 402.003C552.445 395.616 551.617 389.439 549.189 383.503C547.974 380.378 547.799 378.605 548.314 375.253C549.707 372.877 551.254 370.661 552.845 368.413C556.349 363.261 556.986 358.304 556.314 352.253C552.901 346.818 547.444 345.677 541.611 343.566C533.727 340.427 526.885 335.665 523.162 327.827C516.796 312.536 519.266 296.098 520.752 280.003C520.819 279.271 520.886 278.539 520.956 277.784C522.094 265.554 522.094 265.554 522.851 261.075C527.667 231.744 519.135 200.071 502.252 176.128C498.398 170.775 494.258 165.866 489.74 161.058C487.786 158.584 487.314 156.374 487.314 153.253C494.084 155.216 498.825 158.952 504.314 163.253C505.093 163.863 505.871 164.473 506.674 165.101C525.789 181.064 536.346 204.92 539.314 229.253C539.585 234.278 539.6 239.285 539.564 244.316C539.562 244.992 539.559 245.669 539.557 246.366C539.503 259.035 539.018 271.593 536.271 283.991C533.767 296.264 532.661 312.749 538.732 324.089C543.728 330.923 550.886 333.629 558.591 336.543C563.642 338.556 566.227 340.741 569.314 345.253C570.107 347.343 570.107 347.343 570.314 349.253C570.432 350.338 570.432 350.338 570.552 351.444C570.806 359.531 568.919 366.803 564.002 373.316C561.491 377.686 562.385 381.44 563.314 386.253C563.566 387.118 563.566 387.118 563.823 388.001C567.7 405.792 564.436 426.5 558.314 443.253C557.896 444.438 557.479 445.622 557.049 446.843C546.643 473.794 527.165 491.508 501.314 503.253C491.186 507.551 481.125 509.655 470.314 511.253C469.333 511.426 468.353 511.6 467.342 511.778C461.911 512.548 456.433 512.409 450.959 512.429C448.539 512.452 446.119 512.476 443.699 512.501C439.9 512.536 436.102 512.566 432.303 512.579C428.625 512.594 424.948 512.635 421.271 512.679C420.133 512.677 418.994 512.675 417.821 512.673C416.763 512.69 415.704 512.706 414.614 512.723C413.22 512.732 413.22 512.732 411.798 512.741C408.534 513.414 407.375 514.68 405.314 517.253C404.271 519.903 403.403 522.406 402.627 525.128C402.415 525.823 402.203 526.518 401.984 527.234C399.283 536.284 399.001 544.831 399.314 554.253C399.335 555.204 399.355 556.156 399.377 557.136C399.931 562.66 401.817 565.154 406.064 568.691C407.587 569.823 409.111 570.955 410.656 572.058C413.583 574.168 416.413 576.401 419.252 578.628C419.843 579.089 420.434 579.551 421.043 580.026C434.867 590.908 447.476 603.406 458.314 617.253C459.012 618.141 459.709 619.029 460.427 619.944C462.065 622.041 463.694 624.143 465.314 626.253C472.745 625.101 479.545 621.388 486.314 618.253C487.137 617.874 487.959 617.495 488.806 617.104C511.407 606.564 532.074 593.081 551.314 577.253C551.896 576.786 552.477 576.318 553.076 575.837C569.876 562.335 585.548 546.613 598.314 529.253C599.62 527.664 600.932 526.081 602.252 524.503C611.955 512.374 620.062 498.962 627.314 485.253C627.649 484.623 627.983 483.992 628.328 483.342C643.22 455.016 653.556 424.759 659.439 393.316C659.598 392.47 659.757 391.625 659.921 390.754C660.427 387.925 660.881 385.094 661.314 382.253C661.588 380.461 661.588 380.461 661.867 378.633C663.485 367.126 663.621 355.684 663.575 344.079C663.564 340.89 663.575 337.7 663.588 334.511C663.596 321.954 662.915 309.705 661.314 297.253C661.204 296.292 661.095 295.331 660.982 294.341C657.396 263.214 647.063 232.311 633.314 204.253C632.872 203.345 632.43 202.437 631.975 201.501C624.842 186.976 616.664 173.456 607.314 160.253C606.89 159.655 606.467 159.056 606.03 158.44C603.548 154.971 600.957 151.6 598.314 148.253C597.831 147.636 597.348 147.019 596.851 146.384C590.502 138.299 583.999 130.658 576.607 123.511C574.801 121.733 573.19 119.987 571.627 118.003C569.013 114.894 566.124 112.432 562.986 109.866C561.314 108.253 561.314 108.253 560.314 105.253C560.344 103.627 560.41 102.002 560.502 100.378C560.539 96.7466 560.446 95.4787 558.564 92.2531C555.116 89.1883 552.503 87.9773 547.877 88.0656C547.135 88.072 546.394 88.0784 545.631 88.0851C543.269 88.1511 543.269 88.1511 541.002 89.089C536.626 89.3561 534.106 86.655 530.752 84.0656C494.735 57.575 451.978 40.0437 408.189 31.4406C406.8 31.1663 406.8 31.1663 405.382 30.8866C402.035 30.2746 398.681 29.7446 395.314 29.2531C394.461 29.1278 393.607 29.0025 392.727 28.8734C377.646 26.7214 362.815 25.7732 347.585 25.8619C344.314 25.8781 341.045 25.8619 337.775 25.8429C318.416 25.8234 299.247 27.7246 280.252 31.5031Z" fill="#731BDF"/>
<path d="M410.314 593.253C411.276 593.981 412.237 594.71 413.228 595.46C418.926 599.901 424.219 604.749 429.506 609.663C431.761 611.743 434.043 613.763 436.377 615.753C439.81 618.737 443.076 621.873 446.314 625.066C446.808 625.546 447.302 626.027 447.811 626.523C449.018 627.727 450.171 628.986 451.314 630.253C451.314 630.913 451.314 631.573 451.314 632.253C420.817 642.271 388.496 648.746 356.314 649.253C355.419 649.268 354.524 649.283 353.602 649.299C300.883 650.037 300.883 650.037 289.314 644.253C287.421 644.002 285.524 643.778 283.627 643.566C257.549 639.889 231.118 630.692 207.455 619.285C205.979 618.573 204.498 617.872 203.013 617.178C192.351 612.197 182.204 606.56 172.189 600.378C170.614 599.414 170.614 599.414 169.007 598.431C168.033 597.818 167.06 597.205 166.056 596.573C164.755 595.758 164.755 595.758 163.427 594.925C161.214 593.174 160.335 591.853 159.314 589.253C163.866 584.487 168.571 580.283 173.877 576.378C174.569 575.864 175.262 575.35 175.975 574.821C182.565 569.981 189.352 565.535 196.314 561.253C197.262 560.65 198.209 560.046 199.185 559.425C267.511 517.349 351.801 548.659 410.314 593.253Z" fill="#FCFCFC"/>
<path d="M219.314 159.253C228.116 163.771 232.084 172.043 235.189 181.128C238.268 194.018 238.102 208.684 231.314 220.253C230.716 221.305 230.118 222.357 229.502 223.441C220.525 234.982 209.873 244.159 195.037 246.847C192.379 247.137 189.918 247.306 187.263 247.323C177.705 247.388 171.373 248.249 164.314 255.253C161.223 258.539 158.153 261.843 155.222 265.273C151.059 270.013 151.059 270.013 147.834 271.054C143.9 269.804 141.319 267.263 138.314 264.503C137.106 263.424 135.898 262.346 134.689 261.269C134.118 260.754 133.547 260.239 132.959 259.708C130.809 257.806 128.577 256.019 126.314 254.253C126.731 248.979 128.252 246.724 131.939 243.003C140.585 233.9 147.601 225.129 147.814 212.128C148.577 194.099 154.683 178.402 167.314 165.253C182.362 151.705 201.39 151.064 219.314 159.253Z" fill="#F9F9FA"/>
<path d="M428.358 85.5278C432.704 87.2106 437.065 88.8556 441.424 90.507C442.279 90.8321 443.135 91.1573 444.017 91.4923C487.743 108.402 487.743 108.402 533.314 103.253C536.847 101.589 540.212 99.6801 543.545 97.6437C546.457 96.1814 548.108 95.8658 551.314 96.253C552.314 97.253 552.314 97.253 552.568 99.5382C552.014 105.46 546.452 110.37 542.314 114.378C526.655 127.112 505.884 126.732 486.775 124.898C466.338 121.846 446.875 113.21 427.936 105.272C375.166 83.1803 319.967 77.6942 265.45 98.4405C264.022 98.9839 262.59 99.5204 261.157 100.05C241.797 107.22 224.148 116.663 207.552 128.952C204.314 131.253 204.314 131.253 201.314 132.253C201.314 132.913 201.314 133.573 201.314 134.253C198.252 134.591 195.19 134.922 192.127 135.253C191.262 135.348 190.398 135.444 189.508 135.542C185.426 135.98 181.426 136.389 177.314 136.253C192.582 107.855 239.816 89.323 268.78 80.4076C322.609 64.4753 375.848 65.1709 428.358 85.5278Z" fill="#731BDF"/>
<path d="M113.314 301.253C114.284 304.163 114.387 305.759 114.271 308.761C113.415 340.083 125.565 369.206 147.076 392.13C150.745 395.919 154.505 399.607 158.314 403.253C155.565 410.065 148.384 414.687 142.06 417.913C134.019 421.298 125.91 424.136 117.166 421.64C107.798 417.437 102.005 409.566 98.3143 400.253C97.7246 398.867 97.7246 398.867 97.1229 397.452C86.0598 366.499 99.4966 330.486 112.314 302.253C112.644 301.923 112.974 301.593 113.314 301.253Z" fill="#FBFBFB"/>
<path d="M431.314 124.253C437.439 124.843 442.944 126.203 448.814 128.003C479.592 137.073 518.511 146.061 548.47 130.105C551.099 128.891 553.462 129.123 556.314 129.253C555.738 135.196 552.322 137.48 547.974 141.179C540.146 147.283 530.703 149.473 521.314 152.253C522.402 152.847 523.49 153.442 524.611 154.054C539.925 162.608 553.514 172.705 560.314 189.628C563.33 200.456 561.876 213.12 556.885 223.116C552.26 231.066 552.26 231.066 549.314 233.253C547.217 232.826 547.217 232.826 545.314 232.253C545.34 231.407 545.367 230.561 545.394 229.69C545.48 226.491 545.542 223.294 545.589 220.095C545.614 218.722 545.648 217.348 545.691 215.976C546.253 197.91 538.685 184.566 526.592 171.542C523.868 168.804 521.028 166.27 518.041 163.823C514.631 160.722 513.365 159.276 513.127 154.503C513.189 153.431 513.25 152.358 513.314 151.253C512.019 151.299 510.723 151.346 509.388 151.394C496.807 151.706 485.446 150.6 473.314 147.253C472.587 147.055 471.86 146.856 471.111 146.652C458.257 143.025 439.829 137.768 430.314 128.253C430.689 126.128 430.689 126.128 431.314 124.253Z" fill="#731BDF"/>
<path d="M201.752 170.253C206.375 173.614 208.808 178.24 211.314 183.253C212.378 197.87 210.058 209.77 200.314 221.253C194.404 227.331 188.611 230.681 179.939 230.816C173.999 230.687 170.244 230.091 165.83 226.042C159.397 218.449 158.563 210.929 159.314 201.253C162.028 188.172 168.071 178.061 179.064 170.316C185.871 167.101 195.104 166.479 201.752 170.253Z" fill="#731BDF"/>
<path d="M285.412 332.019C293.945 337.555 299.111 343.643 302.314 353.253C302.437 355.87 302.499 358.449 302.502 361.066C302.514 361.765 302.526 362.464 302.539 363.185C302.551 367.634 301.826 371.098 300.314 375.253C299.576 381.005 300.223 385.231 303.314 390.253C304.304 390.253 305.294 390.253 306.314 390.253C306.706 389.119 307.098 387.984 307.502 386.816C309.314 383.253 309.314 383.253 311.877 382.191C314.314 382.253 314.314 382.253 316.314 384.253C317.093 389.29 316.854 393.246 314.439 397.753C310.661 402.197 310.661 402.197 307.775 402.659C301.109 402.862 296.952 402.388 291.869 397.905C286.757 392.472 286.174 387.551 286.189 380.316C286.187 379.11 286.184 377.905 286.181 376.663C286.297 373.696 286.714 371.145 287.314 368.253C287.943 360.738 288.496 353.896 283.724 347.675C280.534 344.458 277.351 344.121 273.002 343.816C267.727 343.974 264.182 345.706 260.314 349.253C254.927 355.215 254.515 362.46 253.946 370.133C253.496 376.071 253.496 376.071 251.314 378.253C249.314 378.128 249.314 378.128 247.314 377.253C244.499 372.767 244.984 368.197 245.002 363.066C244.986 362.157 244.969 361.249 244.953 360.314C244.946 350.401 247.217 343.381 254.166 336.206C262.305 328.806 275.286 327.321 285.412 332.019Z" fill="#731BDF"/>
<path d="M151.314 227.253C151.751 228.141 151.751 228.141 152.197 229.046C156.385 237.119 160.79 241.014 169.314 244.253C168.984 246.233 168.654 248.213 168.314 250.253C168.974 250.583 169.634 250.913 170.314 251.253C169.47 251.753 168.626 252.253 167.756 252.769C162.847 256.036 159.25 260.676 155.437 265.116C154.849 265.775 154.26 266.434 153.654 267.112C153.132 267.715 152.61 268.318 152.072 268.94C149.67 270.734 148.248 270.665 145.314 270.253C143.541 269.215 143.541 269.215 141.939 267.769C141.346 267.245 140.753 266.722 140.142 266.183C139.539 265.628 138.936 265.074 138.314 264.503C137.106 263.424 135.898 262.346 134.689 261.269C134.118 260.754 133.547 260.239 132.959 259.708C130.809 257.806 128.577 256.019 126.314 254.253C126.727 248.943 128.309 246.642 132.002 242.878C135.685 239.021 139.014 235.185 142.06 230.812C144.833 227.365 147.144 227.028 151.314 227.253Z" fill="#F8F8F8"/>
<path d="M486.314 312.253C488.939 312.628 488.939 312.628 491.314 313.253C491.461 314.79 491.461 314.79 491.611 316.359C491.761 317.719 491.912 319.08 492.064 320.441C492.126 321.114 492.188 321.788 492.252 322.482C492.806 327.22 493.92 329.907 497.314 333.253C499.625 334.868 499.625 334.868 502.064 336.066C502.863 336.484 503.663 336.903 504.486 337.335C505.089 337.638 505.693 337.941 506.314 338.253C505.984 339.573 505.654 340.893 505.314 342.253C503.613 342.327 503.613 342.327 501.877 342.401C500.356 342.477 498.835 342.552 497.314 342.628C496.57 342.659 495.827 342.69 495.06 342.722C490.646 342.952 486.765 343.643 482.48 344.803C465.419 348.346 450.184 344.52 435.767 335.603C433.288 333.967 431.552 332.805 430.357 330.034C430.343 329.446 430.329 328.859 430.314 328.253C430.644 327.923 430.974 327.593 431.314 327.253C436.121 327.669 440.601 328.511 445.25 329.765C455.576 332.521 466.614 334.188 477.127 331.253C480.828 328.931 481.679 327.467 482.869 323.386C483.5 320.363 483.886 317.31 484.314 314.253C484.974 313.593 485.634 312.933 486.314 312.253Z" fill="#731BDF"/>
<path d="M492.314 251.253C493.314 252.253 493.314 252.253 493.564 255.691C493.482 256.866 493.399 258.042 493.314 259.253C489.575 261.746 486.287 261.775 481.939 262.128C462.402 264.039 444.673 272.485 430.314 285.878C427.314 288.253 427.314 288.253 424.377 288.128C423.356 287.695 423.356 287.695 422.314 287.253C423.117 281.301 426.301 278.469 430.314 274.253C430.83 273.674 431.345 273.095 431.877 272.499C439.504 264.28 449.089 258.583 459.127 253.816C460.166 253.321 460.166 253.321 461.226 252.816C471.882 247.951 481.444 246.4 492.314 251.253Z" fill="#731BDF"/>
<path d="M495.314 415.253C499.626 415.628 502.739 416.409 506.627 418.316C511.616 420.427 516.163 420.632 521.502 420.628C522.262 420.629 523.022 420.631 523.806 420.632C528.615 420.539 532.695 419.704 537.314 418.253C540.252 418.128 540.252 418.128 542.314 418.253C542.809 420.728 542.809 420.728 543.314 423.253C535.73 430.449 528.079 431.808 517.773 431.818C509.358 431.513 502.379 428.147 496.002 422.691C494.314 420.253 494.314 420.253 494.502 417.441C494.77 416.719 495.038 415.997 495.314 415.253Z" fill="#731BDF"/>
<path d="M124.314 270.253C127.832 271.505 130.356 272.879 133.127 275.378C133.731 275.917 134.336 276.456 134.959 277.011C135.406 277.421 135.853 277.831 136.314 278.253C134.901 282.441 132.9 285.305 130.002 288.628C129.242 289.523 128.483 290.417 127.701 291.339C125.314 293.253 125.314 293.253 122.728 293.155C119.481 291.942 117.003 290.442 114.314 288.253C114.314 284.25 114.319 283.746 116.502 280.8C116.953 280.181 117.404 279.562 117.869 278.925C118.346 278.291 118.823 277.656 119.314 277.003C119.791 276.353 120.268 275.704 120.76 275.034C121.936 273.434 123.124 271.843 124.314 270.253Z" fill="#F7F7F7"/>
<path d="M148.314 227.253C150.197 227.519 150.197 227.519 152.314 228.253C153.369 229.925 153.369 229.925 154.189 232.003C157.324 238.823 162.566 241.689 169.314 244.253C168.939 246.691 168.939 246.691 168.314 249.253C165.164 250.828 162.666 251.215 159.314 250.253C153.947 246.386 149.134 241.661 145.314 236.253C145.471 232.325 146.12 230.544 148.314 227.253Z" fill="#731BDF"/>
<path d="M187.314 125.253C187.314 126.243 187.314 127.233 187.314 128.253C185.648 129.92 183.981 131.586 182.314 133.253C182.314 134.243 182.314 135.233 182.314 136.253C180.664 136.253 179.014 136.253 177.314 136.253C179.728 131.426 183.175 128.553 187.314 125.253Z" fill="#731BDF"/>
<path d="M113.314 301.253C114.59 305.081 114.177 308.488 113.877 312.441C113.825 313.19 113.772 313.94 113.719 314.712C113.589 316.559 113.452 318.406 113.314 320.253C112.984 320.253 112.654 320.253 112.314 320.253C111.984 316.953 111.654 313.653 111.314 310.253C110.324 310.748 110.324 310.748 109.314 311.253C109.79 309.773 110.27 308.294 110.752 306.816C111.019 305.992 111.285 305.168 111.56 304.319C112.314 302.253 112.314 302.253 113.314 301.253Z" fill="#731BDF"/>
<path d="M107.314 248.253C107.644 248.253 107.974 248.253 108.314 248.253C108.644 252.543 108.974 256.833 109.314 261.253C108.324 261.253 107.334 261.253 106.314 261.253C105.752 259.316 105.752 259.316 105.314 257.253C105.644 256.923 105.974 256.593 106.314 256.253C106.545 254.906 106.726 253.549 106.877 252.191C107.021 250.891 107.165 249.592 107.314 248.253Z" fill="#731BDF"/>
<path d="M204.314 338.253C205.304 338.583 206.294 338.913 207.314 339.253C206.362 340.259 205.402 341.258 204.439 342.253C203.906 342.81 203.372 343.367 202.822 343.941C201.314 345.253 201.314 345.253 199.314 345.253C200.607 342.369 201.974 340.381 204.314 338.253Z" fill="#731BDF"/>
<path d="M220.314 323.253C220.314 326.253 220.314 326.253 217.814 328.941C216.989 329.704 216.164 330.467 215.314 331.253C214.324 330.923 213.334 330.593 212.314 330.253C214.954 327.943 217.594 325.633 220.314 323.253Z" fill="#731BDF"/>
</svg>
